#N canvas 758 215 450 300 12;
#X obj 48 129 +;
#X floatatom 48 103 5 0 0 0 - - -, f 5;
#X floatatom 93 103 5 0 0 0 - - -, f 5;
#X floatatom 48 158 5 0 0 0 - - -, f 5;
#X floatatom 141 103 5 0 0 0 - - -, f 5;
#X floatatom 186 103 5 0 0 0 - - -, f 5;
#X floatatom 141 158 5 0 0 0 - - -, f 5;
#X floatatom 234 103 5 0 0 0 - - -, f 5;
#X floatatom 279 103 5 0 0 0 - - -, f 5;
#X floatatom 234 158 5 0 0 0 - - -, f 5;
#X floatatom 327 103 5 0 0 0 - - -, f 5;
#X floatatom 372 103 5 0 0 0 - - -, f 5;
#X floatatom 327 158 5 0 0 0 - - -, f 5;
#X obj 141 129 -;
#X obj 234 129 *;
#X obj 327 130 /;
#X obj 191 30 bng 50 250 50 0 empty empty PUSH 5 26 0 17 -4034 -1 -1
;
#X connect 0 0 3 0;
#X connect 1 0 0 0;
#X connect 2 0 0 1;
#X connect 4 0 13 0;
#X connect 5 0 13 1;
#X connect 7 0 14 0;
#X connect 8 0 14 1;
#X connect 10 0 15 0;
#X connect 11 0 15 1;
#X connect 13 0 6 0;
#X connect 14 0 9 0;
#X connect 15 0 12 0;
#X connect 16 0 1 0;
#X connect 16 0 2 0;
#X connect 16 0 4 0;
#X connect 16 0 5 0;
#X connect 16 0 7 0;
#X connect 16 0 8 0;
#X connect 16 0 10 0;
#X connect 16 0 11 0;
