#N canvas 755 168 450 300 12;
#X obj 79 35 bng 15 250 50 0 empty empty empty 17 7 0 10 -262144 -1
-1;
#X obj 79 35 bng 15 250 50 0 empty empty empty 17 7 0 10 -262144 -1
-1;
#X obj 79 35 bng 15 250 50 0 empty empty empty 17 7 0 10 -262144 -1
-1;
#X obj 79 35 bng 15 250 50 0 empty empty empty 17 7 0 10 -262144 -1
-1;
#X obj 79 35 bng 15 250 50 0 empty empty empty 17 7 0 10 -262144 -1
-1;
#X obj 79 75 f;
#X floatatom 78 140 5 0 0 0 - - -, f 5;
#X msg 113 34 0;
#X obj 79 106 + 1;
#X connect 0 0 5 0;
#X connect 5 0 8 0;
#X connect 7 0 5 1;
#X connect 8 0 6 0;
#X connect 8 0 5 1;
