#N canvas 779 6 434 405 10;
#X obj 67 52 bng 15 250 50 0 empty empty empty 17 7 0 10 -262144 -1
-1;
#X obj 68 95 f;
#X obj 68 124 + 1;
#X floatatom 68 209 5 0 0 0 - - -;
#X msg 107 68 0;
#X obj 66 166 % 7;
#X connect 0 0 1 0;
#X connect 1 0 2 0;
#X connect 2 0 1 1;
#X connect 2 0 5 0;
#X connect 4 0 1 1;
#X connect 5 0 3 0;
