#N canvas 738 280 450 300 12;
#X floatatom 79 33 5 0 0 0 - - -, f 5;
#X obj 115 77 * 600;
#X obj 40 78 * 400;
#X obj 40 126 osc~;
#X obj 115 127 osc~;
#X obj 41 168 *~ 0.5;
#X obj 28 206 dac~;
#X connect 0 0 2 0;
#X connect 0 0 1 0;
#X connect 1 0 4 0;
#X connect 2 0 3 0;
#X connect 3 0 5 0;
#X connect 4 0 5 0;
#X connect 5 0 6 0;
#X connect 5 0 6 1;
