#N canvas 719 87 500 537 10;
#X msg 53 51 440 0.6;
#X msg 124 51 300 0.3;
#X msg 196 51 1000 0.8;
#X obj 53 85 unpack f f;
#X floatatom 53 119 5 0 0 0 - - -, f 5;
#X obj 53 150 osc~;
#X floatatom 122 120 5 0 0 0 - - -, f 5;
#X obj 53 184 *~;
#X obj 53 218 dac~;
#X msg 215 111 440 0.6;
#X msg 286 111 300 0.3;
#X msg 358 111 1000 0.8;
#X obj 215 139 unpack f f;
#X obj 215 167 osc~;
#X obj 215 195 *~;
#X obj 205 227 dac~;
#X connect 0 0 3 0;
#X connect 1 0 3 0;
#X connect 2 0 3 0;
#X connect 3 0 4 0;
#X connect 3 1 6 0;
#X connect 4 0 5 0;
#X connect 5 0 7 0;
#X connect 6 0 7 1;
#X connect 7 0 8 0;
#X connect 7 0 8 1;
#X connect 9 0 12 0;
#X connect 10 0 12 0;
#X connect 11 0 12 0;
#X connect 12 0 13 0;
#X connect 12 1 14 1;
#X connect 13 0 14 0;
#X connect 14 0 15 0;
#X connect 14 0 15 1;
