#N canvas 732 98 474 560 10;
#X msg 35 44 43;
#X obj 35 73 pack f s;
#X obj 35 104 print;
#X obj 219 104 print;
#X msg 219 44 hello;
#X obj 219 73 pack s s;
#X obj 35 254 print;
#X msg 35 194 hello;
#X obj 35 223 pack s s;
#X obj 88 194 symbol;
#X msg 88 164 dieter;
#X text 177 184 Note that any inlet taking a symbol value other than
the left most \, must be explicitly defined as: 'symbol <symbol>';
#X msg 88 44 symbol hello;
#X msg 272 44 symbol dieter;
#X msg 89 321 43;
#X msg 36 321 hello;
#X obj 36 349 pack s f;
#X obj 36 377 unpack s f;
#X obj 36 405 print left;
#X obj 125 405 print right;
#X connect 0 0 1 0;
#X connect 1 0 2 0;
#X connect 4 0 5 0;
#X connect 5 0 3 0;
#X connect 7 0 8 0;
#X connect 8 0 6 0;
#X connect 9 0 8 1;
#X connect 10 0 9 0;
#X connect 12 0 1 1;
#X connect 13 0 5 1;
#X connect 14 0 16 1;
#X connect 15 0 16 0;
#X connect 16 0 17 0;
#X connect 17 0 18 0;
#X connect 17 1 19 0;
