#N canvas 245 269 871 656 10;
#X msg 218 136 1;
#X msg 255 136 0;
#X obj 218 187 bng 25 250 50 0 empty empty empty 17 7 0 10 -262144
-1 -1;
#X obj 218 161 metro;
#X floatatom 64 329 5 0 0 0 - - -;
#X obj 281 490 dac~;
#X msg 161 357 0;
#X msg 125 357 1;
#X obj 289 136 bng 15 250 50 0 empty empty empty 17 7 0 10 -262144
-1 -1;
#X obj 289 188 + 500;
#X floatatom 199 329 5 0 0 0 - - -;
#X msg 296 357 0;
#X msg 260 357 1;
#X obj 60 44 bng 50 250 50 0 empty empty START 10 25 0 10 -4034 -1
-1;
#X obj 122 44 bng 50 250 50 0 empty empty STOP 13 25 0 10 -258113 -1
-1;
#X obj 64 357 phasor~;
#X obj 199 357 phasor~;
#X msg 541 135 1;
#X msg 578 135 0;
#X obj 541 186 bng 25 250 50 0 empty empty empty 17 7 0 10 -262144
-1 -1;
#X obj 541 160 metro;
#X obj 387 268 random 600;
#X obj 387 297 + 200;
#X floatatom 387 328 5 0 0 0 - - -;
#X msg 484 356 0;
#X msg 448 356 1;
#X obj 612 135 bng 15 250 50 0 empty empty empty 17 7 0 10 -262144
-1 -1;
#X obj 612 161 random 1000;
#X obj 612 187 + 500;
#X floatatom 530 355 5 0 0 0 - - -;
#X msg 627 383 0;
#X msg 591 383 1;
#X obj 383 43 bng 50 250 50 0 empty empty START 10 25 0 10 -4034 -1
-1;
#X obj 445 43 bng 50 250 50 0 empty empty STOP 13 25 0 10 -258113 -1
-1;
#X obj 387 356 phasor~;
#X obj 530 383 phasor~;
#X obj 508 322 + 6;
#X obj 166 438 *~;
#X obj 228 436 *~;
#X obj 311 436 *~;
#X obj 386 435 *~;
#X obj 64 298 + 150;
#X obj 199 298 + 150;
#X obj 64 269 random 500;
#X obj 199 269 random 500;
#X obj 289 162 random 1500;
#X connect 0 0 3 0;
#X connect 1 0 3 0;
#X connect 2 0 8 0;
#X connect 2 0 43 0;
#X connect 2 0 44 0;
#X connect 3 0 2 0;
#X connect 4 0 15 0;
#X connect 6 0 37 1;
#X connect 7 0 37 1;
#X connect 8 0 45 0;
#X connect 9 0 3 1;
#X connect 10 0 16 0;
#X connect 11 0 38 1;
#X connect 12 0 38 1;
#X connect 13 0 0 0;
#X connect 13 0 7 0;
#X connect 13 0 12 0;
#X connect 14 0 1 0;
#X connect 14 0 6 0;
#X connect 14 0 11 0;
#X connect 15 0 37 0;
#X connect 16 0 38 0;
#X connect 17 0 20 0;
#X connect 18 0 20 0;
#X connect 19 0 21 0;
#X connect 19 0 26 0;
#X connect 20 0 19 0;
#X connect 21 0 22 0;
#X connect 22 0 23 0;
#X connect 22 0 36 0;
#X connect 23 0 34 0;
#X connect 24 0 39 1;
#X connect 25 0 39 1;
#X connect 26 0 27 0;
#X connect 27 0 28 0;
#X connect 28 0 20 1;
#X connect 29 0 35 0;
#X connect 30 0 40 1;
#X connect 31 0 40 1;
#X connect 32 0 17 0;
#X connect 32 0 25 0;
#X connect 32 0 31 0;
#X connect 33 0 18 0;
#X connect 33 0 24 0;
#X connect 33 0 30 0;
#X connect 34 0 39 0;
#X connect 35 0 40 0;
#X connect 36 0 29 0;
#X connect 37 0 5 0;
#X connect 37 0 5 1;
#X connect 38 0 5 0;
#X connect 38 0 5 1;
#X connect 39 0 5 0;
#X connect 39 0 5 1;
#X connect 40 0 5 0;
#X connect 40 0 5 1;
#X connect 41 0 4 0;
#X connect 42 0 10 0;
#X connect 43 0 41 0;
#X connect 44 0 42 0;
#X connect 45 0 9 0;
